<?xml version="1.0" standalone="no"?>
<!DOCTYPE svg PUBLIC "-//W3C//DTD SVG 20010904//EN"
 "http://www.w3.org/TR/2001/REC-SVG-20010904/DTD/svg10.dtd">
<svg version="1.0" xmlns="http://www.w3.org/2000/svg"
 width="512.000000pt" height="512.000000pt" viewBox="0 0 512.000000 512.000000"
 preserveAspectRatio="xMidYMid meet">
<metadata>
Created by potrace 1.11, written by Peter Selinger 2001-2013
</metadata>
<g transform="translate(0.000000,512.000000) scale(0.100000,-0.100000)"
fill="#000000" stroke="none">
<path d="M2415 4854 c-391 -33 -748 -155 -1064 -365 -511 -340 -864 -866 -985
-1471 -90 -448 -50 -917 113 -1326 121 -303 269 -535 485 -760 374 -390 846
-625 1368 -681 124 -14 367 -14 483 0 884 102 1610 704 1895 1569 78 235 114
465 114 725 0 305 -44 548 -150 834 -288 774 -986 1344 -1785 1456 -115 16
-381 26 -474 19z m849 -1046 c3 -13 6 -405 5 -873 0 -668 -3 -874 -14 -960
-18 -141 -25 -175 -36 -175 -5 0 -9 -11 -9 -24 0 -25 -29 -88 -42 -94 -5 -2
-8 -12 -8 -23 0 -10 -4 -19 -8 -19 -4 0 -16 -15 -27 -32 -10 -18 -27 -40 -37
-49 -10 -9 -18 -19 -18 -23 0 -11 -48 -56 -60 -56 -5 0 -10 -7 -10 -15 0 -8
-7 -15 -15 -15 -8 0 -15 -4 -15 -10 0 -5 -7 -10 -15 -10 -8 0 -15 -4 -15 -10
0 -5 -6 -10 -13 -10 -7 0 -24 -11 -39 -25 -17 -15 -39 -25 -58 -25 -16 0 -30
-4 -30 -10 0 -5 -8 -10 -17 -10 -10 0 -27 -7 -37 -15 -11 -8 -30 -15 -43 -15
-13 0 -23 -4 -23 -10 0 -6 -33 -10 -80 -10 -47 0 -80 -4 -80 -10 0 -6 -32 -10
-75 -10 -43 0 -75 4 -75 10 0 6 -37 10 -90 10 -49 0 -90 4 -90 9 0 5 -22 11
-50 15 -27 4 -52 11 -55 16 -3 6 -17 10 -31 10 -13 0 -24 5 -24 10 0 6 -11 10
-25 10 -14 0 -25 5 -25 10 0 6 -7 10 -15 10 -9 0 -26 11 -39 25 -13 14 -29 25
-36 25 -14 0 -130 117 -130 131 0 5 -6 9 -13 9 -7 0 -19 16 -27 35 -8 19 -17
35 -22 35 -4 0 -8 6 -8 14 0 8 -8 29 -17 48 -9 18 -20 41 -25 50 -4 10 -8 31
-8 48 0 16 -4 30 -10 30 -6 0 -10 39 -10 98 0 63 -4 102 -12 110 -9 9 -9 12 0
12 7 0 12 7 12 15 0 22 484 23 506 1 9 -10 14 -37 14 -80 0 -37 4 -66 10 -66
6 0 10 -11 10 -24 0 -14 6 -31 13 -38 7 -7 20 -28 28 -45 7 -18 19 -33 26 -33
7 0 24 -11 39 -25 16 -15 39 -25 55 -25 16 0 29 -4 29 -10 0 -6 33 -10 80 -10
47 0 80 4 80 10 0 6 12 10 26 10 14 0 32 6 39 13 31 27 44 37 50 37 10 0 35
28 35 39 0 6 5 11 10 11 6 0 10 9 10 19 0 10 7 21 15 25 9 3 15 18 15 36 0 16
5 30 10 30 7 0 10 320 10 939 0 742 3 940 13 944 6 3 125 6 263 6 l252 1 6
-22z"/>
</g>
</svg>
